<?xml version="1.0" encoding="utf-8"?>
<!-- Svg Vector Icons : http://www.onlinewebfonts.com/icon -->
<!DOCTYPE svg PUBLIC "-//W3C//DTD SVG 1.1//EN" "http://www.w3.org/Graphics/SVG/1.1/DTD/svg11.dtd">
<svg version="1.1" xmlns="http://www.w3.org/2000/svg" xmlns:xlink="http://www.w3.org/1999/xlink" x="0px" y="0px" viewBox="0 0 1000 1000" enable-background="new 0 0 1000 1000" xml:space="preserve">
<metadata> Svg Vector Icons : http://www.onlinewebfonts.com/icon </metadata>
<g><path d="M938,32.3c7.4,0,14.8,0,22.3,0c13.5,6.3,23.5,16.1,29.7,29.7c0,9.1,0,18.1,0,27.2c-0.7,1.9-1.7,3.8-2,5.7c-12.1,84.3-72.9,162.1-190.2,177.4c-33,4.3-66.6,4-99.8,7.6c-77.7,8.4-129.6,54.4-148.1,129.9c-1.7,7-2.6,14.2-4.6,25.5c18.5-9,33.9-15.7,48.5-23.9c20.1-11.3,38.9-25.1,59.4-35.4c54.3-27.2,107.5-26,156.9,11.6c18.3,13.9,36,29.2,51.3,46.2c60.9,67.9,97,148.5,115.8,237c5.7,26.9,8.5,54.3,12.6,81.5c0,22.3,0,44.5,0,66.8c-0.9,4.4-1.8,8.7-2.5,13.2c-10,63-31.5,117.3-101.4,135.3c-10.7,0-21.4,0-32.2,0c-13.7-5.4-29.1-8.3-40.7-16.7c-21.3-15.3-40.8-33.1-60-51.1c-23.4-22-44.4-46.6-68.6-67.7c-101.8-88.7-254.3-92.3-359.5-7.6c-29.4,23.6-54.9,52.1-81.5,79.2c-28,28.5-56.9,54.9-97.5,63.9c-10.7,0-21.4,0-32.2,0c-22-6.5-41.8-16.5-57.5-33.9c-18-20-29.8-43.3-36.5-69.1c-4.1-15.8-6.7-32-9.9-48c0-21.4,0-42.9,0-64.3c0.7-4,1.8-7.9,2.1-11.9c6.2-73.5,25.8-143.3,59.6-208.8c29.4-57,66.3-108.2,119.7-145.5c19.8-13.8,41-24.8,65.4-27.5c38.4-4.2,73.4,6.2,106,25.9c20.4,12.3,40.5,25.3,61.5,36.7c11.5,6.2,24.6,9.7,37.7,14.6c1.4-8.4,2.3-14,3.2-19.7c14.8-85.8,55.4-153.6,136.2-192.5c38-18.3,78.8-25.9,120.7-28.2c24.2-1.3,48.7-1.5,72.6-5.2c63.8-9.9,106-50.9,112.4-110.6C909.6,57.1,917.8,41.6,938,32.3z M295.9,763.8c0-27.1,0-53.6,0-81.2c28,0,54.3,0,80.7,0c0-27.3,0-53.5,0-80.9c-27,0-53.2,0-81.3,0c0-27.7,0-54.1,0-80.8c-27.7,0-53.5,0-81.1,0c0,27.1,0,53.6,0,81.2c-28.1,0-54.3,0-80.6,0c0,27.4,0,53.6,0,81c27,0,53.2,0,81.2,0c0,27.6,0,54.1,0,80.7C242.5,763.8,268.3,763.8,295.9,763.8z M744.5,612c28.3,0.2,51.6-22.2,52.1-50.3c0.5-27.8-22.6-51.5-50.6-51.9c-28.7-0.5-52.6,22.6-52.7,51C693.2,588.7,716.3,611.8,744.5,612z M745.6,774.8c28.1-0.2,51.2-23.5,51-51.4c-0.2-27.9-23.3-50.7-51.6-50.7c-28.3,0-51.5,22.7-51.7,50.7C693.2,751.7,716.9,775.1,745.6,774.8z M663.1,591.3c-28.2,0.1-51.4,23.1-51.4,51c0,27.9,23.1,50.9,51.3,51.1c28.8,0.1,52.4-23.2,52-51.6C714.6,613.9,691.4,591.2,663.1,591.3z M827,693.4c28.2-0.1,51.3-23.1,51.3-51.1c0-27.9-23.2-50.9-51.4-51c-28.7-0.1-52.4,23.4-51.9,51.7C775.5,671.1,798.7,693.5,827,693.4z"/></g>
</svg>